<svg xmlns="http://www.w3.org/2000/svg" width="160" height="160" viewBox="0 0 160 160" role="img" aria-label="Shopee">
  <rect width="160" height="160" rx="28" fill="#ee4d2d"/>
  <path d="M43 55h74l7 76H36l7-76Z" fill="#fff"/>
  <path d="M60 57V43c0-13 8-23 20-23s20 10 20 23v14" fill="none" stroke="#fff" stroke-width="11" stroke-linecap="round"/>
  <path d="M96 76c-6-4-12-6-18-6-10 0-17 5-17 12 0 8 7 11 19 14 13 3 21 9 21 21 0 14-12 23-29 23-10 0-20-3-27-9l8-12c6 5 13 7 20 7 8 0 13-3 13-8 0-6-5-8-17-11-15-4-23-11-23-23 0-15 13-27 32-27 10 0 19 3 26 8l-8 11Z" fill="#ee4d2d"/>
</svg>
